# xmcd CD database file
#
# Track frame offsets:
#	150
#	20892
#	44601
#	69628
#	88756
#	108599
#	139743
#	162341
#	178687
#	200450
#	228970
#	246570
#	262487
#	280146
#	298122
#	302597
#	323044
#
# Disc length: 4655 seconds
#
# Revision: 0
# Processed by: cddbd v1.5.2PL0 Copyright (c) Steve Scherf et al.
# Submitted via: CDex 1.51
#
DISCID=0e122d11
DTITLE=Dowland Project  John Potter  - Romaria
DYEAR=2008
DGENRE=New Age
TTITLE0=Got Schepfer Aller Dingen
TTITLE1=Veris Dulcis
TTITLE2=Pulcherrima Rosa
TTITLE3=Ora Pro Nobis
TTITLE4=Lá Lume
TTITLE5=Dulce Solum
TTITLE6=Der Oben Swebt
TTITLE7=O Beata Infantia (Fragment)
TTITLE8=O Rosa
TTITLE9=Saudade
TTITLE10=In Flagellis
TTITLE11=Kyrie Jesus Autem Transiens
TTITLE12=O Beata Infantia
TTITLE13=Credo Laudate Dominum
TTITLE14=Ein Gut Preambel
TTITLE15=Sanctus Tu Solus Qui Facis
TTITLE16=Ein Iberisch Postambel
EXTD=YEAR: 2008
EXTT0=
EXTT1=
EXTT2=
EXTT3=
EXTT4=
EXTT5=
EXTT6=
EXTT7=
EXTT8=
EXTT9=
EXTT10=
EXTT11=
EXTT12=
EXTT13=
EXTT14=
EXTT15=
EXTT16=
PLAYORDER=
